<svg aria-hidden="true" xmlns="http://www.w3.org/2000/svg"><defs><symbol id="logo" viewBox="0 0 69 56"><g clip-path="url('#clip0_4935_575')"><path d="m39.15 16.87-1.31-1a1 1 0 0 0-1.4.14L18.31 36.83l.28.31L23.08 33a.69.69 0 0 1 .27-1.33.68.68 0 0 1 .65.48l5.92-5.49a.51.51 0 0 1 .64 0l.3.22a.5.5 0 0 0 .67-.08l7.74-8.68a.83.83 0 0 0-.12-1.25Z"/><path d="M47.67 22.73a40.45 40.45 0 0 1-13.12 6.15A71.156 71.156 0 0 1 20.28 31c.097.71.272 1.408.52 2.08 2.72 2.46 23.2-1.74 27.2-6.6.85-1.01-.33-3.75-.33-3.75ZM23.35 33a.68.68 0 1 1 .68-.68.67.67 0 0 1-.68.68ZM4 21.29l.16-.69 2.6.59c.215.396.347.831.39 1.28.05.475.02.955-.09 1.42a3.76 3.76 0 0 1-.86 1.74 3.43 3.43 0 0 1-1.54 1 3.65 3.65 0 0 1-1.89.07 3.51 3.51 0 0 1-1.67-.88 3.3 3.3 0 0 1-.95-1.57 3.78 3.78 0 0 1 0-2c.108-.49.3-.957.57-1.38a2.92 2.92 0 0 1 1-.93l.36.55a2.86 2.86 0 0 0-1.32 1.94A3.12 3.12 0 0 0 .79 24c.135.486.401.926.77 1.27.38.367.854.62 1.37.73.5.14 1.03.14 1.53 0 .48-.158.91-.437 1.25-.81.35-.403.59-.888.7-1.41a3.07 3.07 0 0 0-.12-1.91L4 21.29ZM9.66 15l-2.33 3.11 1 1.79-.46.62-3.7-6.75.43-.59 7.53 1.62-.47.62-2-.42ZM9 14.84l-4-.9 2 3.59 2-2.69ZM9 8.55l.6-.45 3.81 5.1 3.14-2.35.38.51-3.73 2.79L9 8.55ZM15.3 4.38l.67-.3 2.64 5.78 3.57-1.62.26.58-4.24 1.93-2.9-6.37ZM28.48 6.68l.15.63-4.82 1.13-1.6-6.82L26.89.53l.14.62-4 .93.57 2.42 3.52-.83.15.62-3.53.82.6 2.53 4.14-.96ZM35.35 6.93l-1.67-2.2c-.187.01-.374.01-.56 0l-1.88.06.07 2.22h-.74l-.23-7L33 0a3.16 3.16 0 0 1 2.12.57 2.2 2.2 0 0 1 .82 1.74c.029.494-.1.985-.37 1.4a2.33 2.33 0 0 1-1.16.85l1.75 2.34-.81.03Zm-.7-3.29a1.59 1.59 0 0 0 .51-1.31 1.61 1.61 0 0 0-.59-1.28A2.43 2.43 0 0 0 33 .64l-1.9.07.12 3.5 1.86-.06a2.4 2.4 0 0 0 1.57-.51ZM40.64 5.07l-.36 2.39-.73-.11.37-2.35-2.07-5 .78.12 1.77 4.26 3-3.53.7.15-3.46 4.07ZM50.53 4.65l.87 1.13-.38.3-.87-1.16-.55 1.31-.42-.18.56-1.31-1.44.19v-.48l1.42-.16-.88-1.13.39-.3L50 4l.54-1.32.43.18-.51 1.34L51.9 4v.49l-1.37.16ZM53.87 12.71a2.77 2.77 0 0 1-.43-1.21l.59-.26c.045.396.174.778.38 1.12.224.383.515.722.86 1a2.35 2.35 0 0 0 1.3.63 1.09 1.09 0 0 0 .94-.39.9.9 0 0 0 .23-.68 1.84 1.84 0 0 0-.24-.69 10.48 10.48 0 0 0-.61-.89 9.099 9.099 0 0 1-.72-1.1 2 2 0 0 1-.26-.94c0-.37.139-.728.39-1a1.83 1.83 0 0 1 .83-.57 2 2 0 0 1 1.11 0 3.68 3.68 0 0 1 1.27.72c.308.256.58.552.81.88.213.304.372.642.47 1l-.57.3a3.52 3.52 0 0 0-.44-.94 3.608 3.608 0 0 0-.67-.69 2.22 2.22 0 0 0-1.29-.61 1.08 1.08 0 0 0-.94.41.86.86 0 0 0-.23.68c.024.252.106.495.24.71.14.23.34.53.61.89.268.34.509.702.72 1.08a2 2 0 0 1 .27.94c.001.37-.138.728-.39 1a1.78 1.78 0 0 1-.84.57 1.92 1.92 0 0 1-1.11 0 3.711 3.711 0 0 1-1.28-.72 4.551 4.551 0 0 1-1-1.24ZM63.93 14.17l-1.41-2 .52-.37 3.25 4.64-.52.37-1.41-2-5.22 3.65-.42-.61 5.21-3.68ZM61.69 22.39a3.32 3.32 0 0 1 1-1.56 3.55 3.55 0 0 1 1.64-.83 3.62 3.62 0 0 1 1.88.07 3.56 3.56 0 0 1 1.53 1 3.75 3.75 0 0 1 .85 1.74 3.809 3.809 0 0 1 0 1.93 3.42 3.42 0 0 1-1 1.56 3.71 3.71 0 0 1-3.57.78 3.35 3.35 0 0 1-1.53-1 3.76 3.76 0 0 1-.85-1.73 3.851 3.851 0 0 1 .05-1.96ZM63 25.57c.334.38.767.66 1.25.81a3.1 3.1 0 0 0 2.9-.64c.37-.34.642-.77.79-1.25a3.22 3.22 0 0 0-.65-2.94 2.849 2.849 0 0 0-1.29-.81 3 3 0 0 0-1.54 0 2.76 2.76 0 0 0-1.36.69 2.79 2.79 0 0 0-.79 1.26 3 3 0 0 0 0 1.55 2.9 2.9 0 0 0 .69 1.33ZM60.93 34l2.59-1c0-.18.06-.36.11-.55l.49-1.81-2.12-.55.19-.71 6.76 1.81-.68 2.53a3.17 3.17 0 0 1-1.16 1.86 2.16 2.16 0 0 1-1.9.28 2.17 2.17 0 0 1-1.71-2.11l-2.76 1 .19-.75Zm3.35.28a1.8 1.8 0 0 0 2.51.67 2.39 2.39 0 0 0 .85-1.41l.48-1.8-3.39-.91-.48 1.8a2.41 2.41 0 0 0 .03 1.65ZM57.34 40.44l-.51-.39 3-3.95 5.58 4.23-2.9 3.83-.51-.39 2.45-3.23-2-1.51-2.19 2.89-.5-.38L62 38.65l-2.07-1.57-2.59 3.36ZM55 48.41l-1.43.08v-.48L55 48l-.77-1.19.39-.25.76 1.2.62-1.34.43.23-.68 1.26 1.43-.08v.49h-1.45l.77 1.19-.39.25-.76-1.2-.66 1.3-.42-.24.73-1.21ZM42 47.61l1.21.67a3.112 3.112 0 0 1 2-1.58 3.161 3.161 0 0 1 1.23-.13 2 2 0 0 1 1 .36c.267.2.463.48.56.8.12.395.1.82-.06 1.2a5 5 0 0 1-1 1.39c.33.177.636.396.91.65.189.195.33.431.41.69a1.329 1.329 0 0 1-.26 1.17 1.92 1.92 0 0 1-1.12.77c-.4.152-.84.152-1.24 0a1.25 1.25 0 0 1-.72-.85 1.36 1.36 0 0 1 .07-1c.23-.455.53-.87.89-1.23l-2.41-1.34a4.762 4.762 0 0 0-.06 1.43h-.61a4.783 4.783 0 0 1 .2-1.74l-1.26-.7.26-.56Zm1.74 1 2.65 1.47c.347-.332.635-.72.85-1.15.11-.29.11-.61 0-.9a1.08 1.08 0 0 0-.7-.75 2 2 0 0 0-1.28 0 2.4 2.4 0 0 0-1.56 1.3l.04.03Zm3.76 4a.9.9 0 0 0 .08-.74 1.23 1.23 0 0 0-.32-.52 4.32 4.32 0 0 0-.83-.55 5.22 5.22 0 0 0-.79 1 1 1 0 0 0-.08.74.841.841 0 0 0 .44.53c.255.096.536.096.79 0a1.19 1.19 0 0 0 .67-.47l.04.01ZM29.81 55.32l.14-7h.71l-.11 5.6 2.84-4.66h.35L36.4 54l.1-5.57h.71l-.13 7h-.61l-2.94-5.23-3.11 5.13-.61-.01ZM26.33 48a3.41 3.41 0 0 1 .91 3.46 3.56 3.56 0 0 1-.95 1.63 3.36 3.36 0 0 1-1.61.88 3.88 3.88 0 0 1-1.94-.06 3.76 3.76 0 0 1-1.68-.91 3.36 3.36 0 0 1-.93-1.58 3.69 3.69 0 0 1 1-3.52 3.45 3.45 0 0 1 1.58-.9 3.849 3.849 0 0 1 1.93.06 3.769 3.769 0 0 1 1.69.94Zm-3.41-.35a2.67 2.67 0 0 0-1.29.72 2.89 2.89 0 0 0-.76 1.33c-.14.5-.14 1.03 0 1.53.118.487.371.93.73 1.28a3.07 3.07 0 0 0 1.35.77 3.14 3.14 0 0 0 1.55 0c.49-.12.938-.369 1.3-.72a2.94 2.94 0 0 0 .76-1.33 2.88 2.88 0 0 0 0-1.54 2.81 2.81 0 0 0-.74-1.28 3 3 0 0 0-1.36-.76 2.89 2.89 0 0 0-1.54 0ZM15.35 43l.27 2.75c.171.073.338.157.5.25l1.63.94 1.1-1.94.65.37L16 51.4l-2.28-1.31a3.18 3.18 0 0 1-1.5-1.6 2.2 2.2 0 0 1 .22-1.9c.232-.438.6-.79 1.05-1a2.32 2.32 0 0 1 1.44-.11l-.29-2.94.71.46Zm-1.14 3.16a1.803 1.803 0 0 0-1.35 1.533 1.8 1.8 0 0 0 .06.717c.234.518.64.938 1.15 1.19l1.61.93 1.75-3-1.61-.93a2.47 2.47 0 0 0-1.61-.49v.05ZM9.43 38.31l.45-.45 3.45 3.55-5 4.88L5 42.85l.46-.45 2.83 2.91L10 43.58 7.52 41l.48-.46 2.53 2.6 1.86-1.81-2.96-3.02ZM2 34.38 2.24 33l.47.07-.27 1.42L3.77 34l.16.44-1.35.46 1.11.94-.32.36-1.07-1-.25 1.42-.48-.09.28-1.42-1.34.48-.15-.39 1.34-.47-1.11-.93.33-.36 1.08.94Z"/></g><defs><clipPath id="clip0_4935_575"><path d="M0 0h68.93v55.46H0z"/></clipPath></defs></symbol><symbol id="menu-burger" viewBox="0 0 24 16"><path fill-rule="evenodd" clip-rule="evenodd" d="M0 2.667V0h24v2.667H0Zm0 6.666h24V6.667H0v2.666ZM0 16h24v-2.667H0V16Z" fill="#fff"/></symbol><symbol id="menu-close" viewBox="0 0 19 19"><path d="M18.667 1.88 16.787 0 9.333 7.453 1.88 0 0 1.88l7.453 7.453L0 16.787l1.88 1.88 7.453-7.454 7.454 7.454 1.88-1.88-7.454-7.454 7.454-7.453Z" fill="#303030"/></symbol><symbol id="instagram" viewBox="0 0 32 32"><path d="M31.969 9.408c-.075-1.7-.35-2.869-.744-3.882a7.806 7.806 0 0 0-1.851-2.838A7.867 7.867 0 0 0 26.542.844C25.523.45 24.36.175 22.66.1 20.947.019 20.403 0 16.059 0s-4.888.019-6.595.094c-1.7.075-2.869.35-3.882.744a7.803 7.803 0 0 0-2.838 1.85A7.867 7.867 0 0 0 .9 5.52C.506 6.539.231 7.702.156 9.402c-.081 1.713-.1 2.257-.1 6.601s.019 4.888.094 6.595c.075 1.7.35 2.869.744 3.882a7.895 7.895 0 0 0 1.85 2.838 7.867 7.867 0 0 0 2.832 1.844c1.019.394 2.182.669 3.882.744 1.706.075 2.25.094 6.595.094s4.888-.019 6.595-.094c1.7-.075 2.869-.35 3.882-.744a8.184 8.184 0 0 0 4.682-4.682c.394-1.019.669-2.182.744-3.882.075-1.707.094-2.251.094-6.595s-.006-4.888-.081-6.595zm-2.882 13.065c-.069 1.563-.331 2.407-.55 2.969a5.31 5.31 0 0 1-3.038 3.038c-.563.219-1.413.481-2.969.55-1.688.075-2.194.094-6.464.094s-4.782-.019-6.464-.094c-1.563-.069-2.407-.331-2.969-.55a4.926 4.926 0 0 1-1.838-1.194 4.974 4.974 0 0 1-1.194-1.838c-.219-.563-.481-1.413-.55-2.969-.075-1.688-.094-2.194-.094-6.464s.019-4.782.094-6.464c.069-1.563.331-2.407.55-2.969a4.868 4.868 0 0 1 1.2-1.838A4.974 4.974 0 0 1 6.639 3.55c.563-.219 1.413-.481 2.969-.55 1.688-.075 2.194-.094 6.464-.094 4.276 0 4.782.019 6.464.094 1.563.069 2.407.331 2.969.55a4.914 4.914 0 0 1 1.838 1.194 4.974 4.974 0 0 1 1.194 1.838c.219.563.481 1.413.55 2.969.075 1.688.094 2.194.094 6.464s-.019 4.77-.094 6.458z"/><path d="M16.059 7.783c-4.538 0-8.22 3.682-8.22 8.22s3.682 8.22 8.22 8.22c4.539 0 8.22-3.682 8.22-8.22s-3.682-8.22-8.22-8.22zm0 13.552a5.333 5.333 0 0 1 0-10.664 5.333 5.333 0 0 1 0 10.664zM26.524 7.458a1.919 1.919 0 1 1-3.838 0 1.919 1.919 0 0 1 3.838 0z"/></symbol><symbol id="twitter" viewBox="0 0 32 32"><path d="M32 6.078c-1.19.522-2.458.868-3.78 1.036a6.523 6.523 0 0 0 2.886-3.626 13.11 13.11 0 0 1-4.16 1.588A6.574 6.574 0 0 0 22.154 3c-3.632 0-6.556 2.948-6.556 6.562 0 .52.044 1.02.152 1.496-5.454-.266-10.28-2.88-13.522-6.862a6.605 6.605 0 0 0-.898 3.316 6.57 6.57 0 0 0 2.914 5.452 6.479 6.479 0 0 1-2.964-.808v.072c0 3.188 2.274 5.836 5.256 6.446a6.548 6.548 0 0 1-1.72.216 5.8 5.8 0 0 1-1.242-.112c.85 2.598 3.262 4.508 6.13 4.57a13.182 13.182 0 0 1-8.134 2.798c-.538 0-1.054-.024-1.57-.09A18.469 18.469 0 0 0 10.064 29c12.072 0 18.672-10 18.672-18.668 0-.29-.01-.57-.024-.848A13.087 13.087 0 0 0 32 6.078z"/></symbol><symbol id="facebook" viewBox="0 0 32 32"><path d="M21.329 5.313h2.921V.225C23.746.156 22.013 0 19.994 0c-4.212 0-7.097 2.649-7.097 7.519V12H8.249v5.688h4.648V32h5.699V17.689h4.46l.708-5.688h-5.169V8.082c.001-1.644.444-2.769 2.735-2.769z"/></symbol><symbol id="linkedin" viewBox="0 0 32 32"><path d="M31.992 32v-.001H32V20.263c0-5.741-1.236-10.164-7.948-10.164-3.227 0-5.392 1.771-6.276 3.449h-.093v-2.913h-6.364v21.364h6.627V21.42c0-2.785.528-5.479 3.977-5.479 3.399 0 3.449 3.179 3.449 5.657v10.401h6.62zM.528 10.636h6.635V32H.528V10.636zM3.843 0C1.722 0 0 1.721 0 3.843s1.721 3.879 3.843 3.879c2.121 0 3.843-1.757 3.843-3.879A3.846 3.846 0 0 0 3.843 0z"/></symbol><symbol id="map-pin" viewBox="0 0 32 32"><path stroke-linejoin="round" stroke-linecap="round" stroke-width="1.333" d="M26.667 13.818C26.667 21.454 16 28 16 28S5.333 21.455 5.333 13.818C5.333 8.396 10.109 4 16 4s10.667 4.396 10.667 9.818z"/><path stroke-linejoin="round" stroke-linecap="round" stroke-width="1.333" d="M16 18.667a4 4 0 1 0 0-8 4 4 0 0 0 0 8z"/></symbol><symbol id="phone" viewBox="0 0 32 32"><path stroke-linejoin="round" stroke-linecap="round" stroke-width="1.333" d="M26.666 21.337v3.218a2.146 2.146 0 0 1-2.338 2.145 21.239 21.239 0 0 1-9.257-3.293 20.914 20.914 0 0 1-6.436-6.436 21.221 21.221 0 0 1-3.293-9.3 2.144 2.144 0 0 1 2.134-2.338h3.218a2.144 2.144 0 0 1 2.145 1.845c.136 1.03.388 2.041.751 3.014a2.144 2.144 0 0 1-.483 2.263l-1.362 1.362a17.162 17.162 0 0 0 6.436 6.436l1.362-1.362a2.146 2.146 0 0 1 2.263-.483c.973.363 1.984.615 3.014.751a2.144 2.144 0 0 1 1.845 2.177z"/></symbol><symbol id="mail" viewBox="0 0 32 32"><path stroke-linejoin="round" stroke-linecap="round" stroke-width="1.333" d="M6.4 6.667h19.2c1.32 0 2.4 1.05 2.4 2.333v14c0 1.283-1.08 2.333-2.4 2.333H6.4C5.08 25.333 4 24.283 4 23V9c0-1.283 1.08-2.333 2.4-2.333z"/><path stroke-linejoin="round" stroke-linecap="round" stroke-width="1.333" d="m26.667 9.333-10.667 8-10.667-8"/></symbol><symbol id="icon-close" viewBox="0 0 32 32"><path d="M31.439 3.166 28.273 0 15.72 12.553 3.167 0 .001 3.166l12.553 12.553L.001 28.272l3.166 3.166L15.72 18.885l12.553 12.553 3.166-3.166-12.553-12.553L31.439 3.166z"/></symbol><symbol id="envelope" viewBox="0 0 640 512"><path d="M464 64c26.5 0 48 21.49 48 48 0 15.1-7.1 29.3-19.2 38.4l-13.9 10.4c-66.6 6.4-122.4 50-146.3 109.8l-57.4 43a32.1 32.1 0 0 1-38.4 0L19.2 150.4C7.113 141.3 0 127.1 0 112c0-26.51 21.49-48 48-48h416zM294.4 339.2l26.4-19.8c-.5 5.5-.8 11-.8 16.6 0 42.5 15.1 81.6 40.2 112H64c-35.35 0-64-28.7-64-64V176l217.6 163.2a63.9 63.9 0 0 0 76.8 0zM640 336c0 79.5-64.5 144-144 144s-144-64.5-144-144 64.5-144 144-144 144 64.5 144 144zm-99.3-43.3L480 353.4l-28.7-28.7c-6.2-6.3-16.4-6.3-22.6 0-6.3 6.2-6.3 16.4 0 22.6l40 40c6.2 6.3 16.4 6.3 22.6 0l72-72c6.3-6.2 6.3-16.4 0-22.6-6.2-6.3-16.4-6.3-22.6 0z"/></symbol><symbol id="mobile" viewBox="0 0 384 512"><path d="M304 0H80C44.65 0 16 28.65 16 64v384c0 35.35 28.65 64 64 64h224c35.35 0 64-28.65 64-64V64c0-35.35-28.7-64-64-64zM192 480c-17.75 0-32-14.25-32-32s14.25-32 32-32 32 14.25 32 32-14.2 32-32 32zM304 64v320H80V64h224z"/></symbol><symbol id="profile" viewBox="0 0 576 512"><path d="M512 32H64C28.65 32 0 60.65 0 96v320c0 35.35 28.65 64 64 64h448c35.35 0 64-28.65 64-64V96c0-35.35-28.7-64-64-64zm-336 96c35.35 0 64 28.65 64 64s-28.65 64-64 64-64-28.65-64-64 28.7-64 64-64zm96 256H80c-8.84 0-16-7.2-16-16 0-44.2 35.82-80 80-80h64c44.18 0 80 35.82 80 80 0 8.8-7.2 16-16 16zm224-64H368c-8.8 0-16-7.2-16-16s7.2-16 16-16h128c8.8 0 16 7.2 16 16s-7.2 16-16 16zm0-64H368c-8.8 0-16-7.2-16-16s7.2-16 16-16h128c8.8 0 16 7.2 16 16s-7.2 16-16 16zm0-64H368c-8.8 0-16-7.2-16-16s7.2-16 16-16h128c8.8 0 16 7.2 16 16s-7.2 16-16 16z"/></symbol><symbol id="send" viewBox="0 0 512 512"><path d="m511.6 36.86-64 415.1a32.008 32.008 0 0 1-31.65 27.147c-4.188 0-8.319-.815-12.29-2.472l-122.6-51.1-50.86 76.29C226.3 508.5 219.8 512 212.8 512c-11.5 0-20.8-9.3-20.8-20.8v-96.18c0-7.115 2.372-14.03 6.742-19.64L416 96 122.3 360.3 19.69 317.5C8.438 312.8.812 302.2.062 289.1s5.47-23.72 16.06-29.77l448-255.1c10.69-6.109 23.88-5.547 34 1.406S513.5 24.72 511.6 36.86z"/></symbol><symbol id="checked" viewBox="0 0 448 512"><path d="M211.8 339.8c-10.9 10.9-28.7 10.9-39.6 0l-64-64c-10.93-10.9-10.93-28.7 0-39.6 10.9-10.9 28.7-10.9 39.6 0l44.2 44.2 108.2-108.2c10.9-10.9 28.7-10.9 39.6 0 10.9 10.9 10.9 28.7 0 39.6l-128 128zM0 96c0-35.35 28.65-64 64-64h320c35.3 0 64 28.65 64 64v320c0 35.3-28.7 64-64 64H64c-35.35 0-64-28.7-64-64V96zm48 0v320c0 8.8 7.16 16 16 16h320c8.8 0 16-7.2 16-16V96c0-8.84-7.2-16-16-16H64c-8.84 0-16 7.16-16 16z"/></symbol><symbol id="unchecked" viewBox="0 0 448 512"><path d="M0 96c0-35.35 28.65-64 64-64h320c35.3 0 64 28.65 64 64v320c0 35.3-28.7 64-64 64H64c-35.35 0-64-28.7-64-64V96Zm48 0v320c0 8.8 7.16 16 16 16h320c8.8 0 16-7.2 16-16V96c0-8.84-7.2-16-16-16H64c-8.84 0-16 7.16-16 16Z"/></symbol><symbol id="icon-warning" viewBox="0 0 512 512"><path d="M506.3 417 293 53c-16.33-28-57.54-28-73.98 0L5.82 417c-16.41 27.9 4.029 63 36.92 63h426.6c32.76 0 53.26-35 36.96-63zM232 168c0-13.25 10.75-24 24-24s24 10.8 24 24v128c0 13.25-10.75 24-23.1 24S232 309.3 232 296V168zm24 248c-17.36 0-31.44-14.08-31.44-31.44s14.07-31.44 31.44-31.44 31.44 14.08 31.44 31.44C287.4 401.9 273.4 416 256 416z"/></symbol><symbol id="icon-success" viewBox="0 0 512 512"><path d="M0 256C0 114.6 114.6 0 256 0s256 114.6 256 256-114.6 256-256 256S0 397.4 0 256zm371.8-44.2c10.9-10.9 10.9-28.7 0-39.6-10.9-10.9-28.7-10.9-39.6 0L224 280.4l-44.2-44.2c-10.9-10.9-28.7-10.9-39.6 0-10.9 10.9-10.9 28.7 0 39.6l64 64c10.9 10.9 28.7 10.9 39.6 0l128-128z"/></symbol></defs></svg>